<?xml version="1.0" standalone="no"?>
<!DOCTYPE svg PUBLIC "-//W3C//DTD SVG 20010904//EN"
 "http://www.w3.org/TR/2001/REC-SVG-20010904/DTD/svg10.dtd">
<svg version="1.0" xmlns="http://www.w3.org/2000/svg"
 width="512.000000pt" height="512.000000pt" viewBox="0 0 512.000000 512.000000"
 preserveAspectRatio="xMidYMid meet">

<g transform="translate(0.000000,512.000000) scale(0.100000,-0.100000)"
fill="#000000" stroke="none">
<path d="M758 4713 c-14 -9 -31 -27 -37 -40 -8 -16 -11 -243 -11 -714 0 -655
1 -696 20 -790 75 -369 300 -662 634 -824 100 -49 275 -105 327 -105 18 0 19
-15 19 -447 0 -356 3 -466 15 -535 83 -472 435 -838 908 -945 104 -23 346 -23
457 1 458 99 807 449 899 903 18 86 21 138 21 355 l0 253 -124 0 -123 0 -6
-240 c-3 -161 -10 -264 -21 -312 -51 -236 -189 -440 -387 -573 -284 -190 -649
-198 -948 -23 -148 87 -305 271 -371 437 -59 147 -62 171 -67 663 l-5 452 23
5 c13 3 54 10 91 16 136 21 308 92 441 181 34 23 105 85 158 138 154 153 247
315 307 531 l27 95 3 733 3 733 -35 35 -34 34 -236 0 -236 0 0 -130 0 -130
140 0 140 0 0 -589 c0 -633 -2 -664 -53 -803 -77 -212 -244 -397 -454 -502
-129 -64 -207 -81 -383 -81 -164 0 -219 9 -342 59 -253 102 -458 341 -529 616
-22 82 -23 105 -26 692 l-4 607 143 3 143 3 3 128 3 127 -233 0 c-199 0 -237
-3 -260 -17z"/>
</g>
</svg>
